<svg width="25" height="24" viewBox="0 0 25 24" fill="none" xmlns="http://www.w3.org/2000/svg">
<path d="M3.25 8.66699C3.24654 7.42991 3.68649 6.26739 4.49023 5.36035L4.65625 5.18262C5.56018 4.25726 6.75862 3.75 8.0293 3.75C9.22341 3.75009 10.3547 4.19891 11.2402 5.02148L11.4141 5.19043L11.9697 5.75977L12.5068 6.30859L13.043 5.75977L13.5898 5.19922C14.498 4.26961 15.6961 3.76279 16.9707 3.7627C18.1668 3.7627 19.2911 4.20531 20.1748 5.02637L20.3477 5.19531C21.1987 6.06654 21.6901 7.20518 21.7451 8.43262L21.75 8.67969V8.68164C21.75 10.0023 21.2489 11.2368 20.3408 12.167L12.4951 20.168L4.66504 12.1504C3.75488 11.2186 3.25007 9.98798 3.25 8.66895V8.66699Z" stroke="black" stroke-width="1.5"/>
</svg>
