<svg width="24" height="24" viewBox="0 0 24 24" fill="none" xmlns="http://www.w3.org/2000/svg">
<g clip-path="url(#clip0_4001_966)">
<path fill-rule="evenodd" clip-rule="evenodd" d="M5.93213 19.2653L5.98944 19.2135L11.9997 13.2033L18.0103 19.2138C18.3031 19.5067 18.778 19.5067 19.0709 19.2138C19.3638 18.9209 19.3638 18.4461 19.0709 18.1532L13.0604 12.1426L19.0709 6.13207C19.3638 5.83917 19.3638 5.3643 19.0709 5.07141C18.778 4.77851 18.3032 4.77851 18.0103 5.07141L11.9997 11.082L5.98944 5.07171L5.93213 5.01992C5.63755 4.7797 5.20335 4.79713 4.92878 5.07171C4.65421 5.34628 4.63677 5.78047 4.87699 6.07505L4.92878 6.13237L10.939 12.1426L4.92878 18.1529L4.87699 18.2102C4.63678 18.5048 4.65421 18.939 4.92878 19.2135C5.20335 19.4881 5.63755 19.5056 5.93213 19.2653Z" fill="#B8B7B6"/>
</g>
<defs>
<clipPath id="clip0_4001_966">
<rect width="24" height="24" fill="white"/>
</clipPath>
</defs>
</svg>
