<svg width="24" height="24" viewBox="0 0 24 24" fill="none" xmlns="http://www.w3.org/2000/svg">
<path d="M10.2678 3C6.24535 3 2.98465 6.26079 2.98457 10.2832C2.98457 14.3057 6.2453 17.5664 10.2678 17.5664C11.7845 17.5663 13.1924 17.1019 14.3586 16.3086C14.3608 16.3109 14.3622 16.3141 14.3645 16.3164L18.7199 20.6719C19.0128 20.9648 19.4876 20.9648 19.7805 20.6719C20.0731 20.379 20.0733 19.9041 19.7805 19.6113L15.508 15.3379C16.7718 14.028 17.551 12.2472 17.551 10.2832C17.5509 6.26089 14.2901 3.00017 10.2678 3ZM10.2678 4.5C13.4616 4.50017 16.0509 7.08932 16.051 10.2832C16.051 13.4771 13.4617 16.0662 10.2678 16.0664C7.07373 16.0664 4.48457 13.4773 4.48457 10.2832C4.48465 7.08922 7.07377 4.5 10.2678 4.5Z" fill="#B8B7B6"/>
</svg>
