<svg width="25" height="24" viewBox="0 0 25 24" fill="none" xmlns="http://www.w3.org/2000/svg">
<path fill-rule="evenodd" clip-rule="evenodd" d="M10.7675 4.5C7.57347 4.5 4.98434 7.08922 4.98427 10.2832C4.98427 13.4773 7.57343 16.0664 10.7675 16.0664C13.9615 16.0663 16.5507 13.4772 16.5507 10.2832C16.5506 7.08926 13.9614 4.50007 10.7675 4.5ZM10.7675 17.5664C6.745 17.5664 3.48427 14.3057 3.48427 10.2832C3.48434 6.26079 6.74504 3 10.7675 3C14.7898 3.00007 18.0506 6.26083 18.0507 10.2832C18.0507 12.2476 17.273 14.0302 16.0088 15.3402L20.2804 19.6118C20.5732 19.9047 20.5732 20.3795 20.2804 20.6724C19.9875 20.9653 19.5127 20.9653 19.2198 20.6724L14.8643 16.3169C14.8621 16.3147 14.8599 16.3125 14.8577 16.3102C13.6918 17.103 12.2837 17.5664 10.7675 17.5664Z" fill="#0A0F15"/>
</svg>
