<svg width="399" height="51" viewBox="0 0 399 51" fill="none" xmlns="http://www.w3.org/2000/svg">
<path d="M304.563 19.7773C309.172 21.4853 315.352 22.1954 320.067 23.5683C325.472 25.1437 329.905 28.2145 329.887 35.3912C329.869 43.9408 323.378 51.0376 310.536 50.99C305.629 51.0276 299.017 49.1245 294.816 46.7065L293.758 34.7486L295.018 34.7536C296.647 43.0906 302.66 48.3869 311.385 48.4194C318.12 48.4469 323.499 45.4662 324.735 39.7723C326.421 31.9953 320.259 30.0849 318.689 29.5523C314.702 28.1969 308.609 27.4443 303.209 25.7463C297.393 23.9159 293.468 20.41 293.483 14.171C293.504 5.33631 302.023 -0.0700168 312.965 0.00250007C319.677 0.0500122 325.138 2.15303 325.96 2.58313L326.813 13.0708L325.705 13.0683C324.405 6.28654 318.848 2.40809 311.729 2.38058C303.951 2.35308 299.323 6.74665 298.702 10.9402C297.969 15.924 300.995 18.4545 304.563 19.7773ZM11.0767 19.7773C7.51006 18.457 4.4834 15.9265 5.22097 10.9427C5.84263 6.75166 10.4709 2.35558 18.2495 2.38309C25.367 2.41059 30.9252 6.28654 32.2239 13.0708L33.3301 13.0733L32.4767 2.58564C31.6549 2.15552 26.1942 0.0525123 19.4824 0.00500019C8.54002 -0.0675167 0.0211209 5.33631 4.75588e-05 14.1735C-0.0157575 20.4125 3.90915 23.9184 9.7254 25.7488C15.1255 27.4468 21.221 28.1994 25.2064 29.5548C26.7764 30.0849 32.9376 31.9978 31.2518 39.7748C30.0164 45.4687 24.6374 48.4494 17.9018 48.4219C9.17748 48.3894 3.16368 43.0931 1.53577 34.7561L0.274001 34.7511L1.33293 46.709C5.5318 49.1271 12.1436 51.0301 17.0537 50.9925C29.8926 51.0401 36.3858 43.9433 36.4043 35.3937C36.4227 28.217 31.9868 25.1462 26.5841 23.5708C21.869 22.1929 15.6865 21.4853 11.0767 19.7773ZM393.887 5.11626C393.887 1.82045 396.961 1.94047 399 1.94047V0.870213H382.468V1.94047C384.52 1.94047 387.594 1.82045 387.594 5.11626L387.581 46.0563C387.581 49.3546 384.505 49.2321 382.468 49.2321V50.2998H399V49.2321C396.948 49.2321 393.874 49.3546 393.874 46.0563L393.887 5.11626ZM249.319 8.1645L265.448 50.3023H270.228L286.034 7.04173C287.73 2.39559 289.992 1.94047 293.248 1.94047V0.872714H277.578V1.94047C279.204 1.94047 280.407 1.97048 281.29 2.18054C283.481 2.69816 283.605 4.4936 283.432 5.7189C283.265 6.87669 282.752 8.07698 282.424 9.01971L269.815 43.9283H269.666L257.116 11.1402C256.172 8.64712 255.625 6.99671 255.441 5.79893C255.174 4.08101 255.82 2.98323 256.626 2.50812C257.411 2.0455 258.178 1.93798 260.087 1.93798V0.870213H241.859V1.93798C246.095 1.93798 247.596 3.6659 249.319 8.1645ZM119.623 5.68389C120.397 3.63339 119.597 2.60314 118.401 2.18804C117.681 1.94047 116.788 1.93798 115.935 1.93798V0.870213H126.013L142.754 43.008C144.563 47.2991 145.825 49.2346 150.301 49.2346V50.3023H132.072V49.2346C133.985 49.2346 134.748 49.1296 135.525 48.6645C136.327 48.1894 136.956 47.0915 136.666 45.3736C136.466 44.1758 135.894 42.5254 134.914 40.0323L132.32 33.4882H111.955L108.715 42.1553C108.375 43.0981 107.846 44.2984 107.666 45.4562C107.474 46.6839 107.574 48.4768 109.76 48.997C110.643 49.2046 111.831 49.2372 113.456 49.2372V50.3048H97.7935V49.2372C101.049 49.2372 103.333 48.7495 105.08 44.1384L119.623 5.68389ZM131.384 31.1277L121.917 7.24428H121.764L112.835 31.1277H131.384ZM165.692 27.7394V27.8694L186.651 50.2998H197.768V49.2296C195.576 49.2296 192.279 48.1018 188.975 44.5785L174.511 29.1421C183.747 28.167 191.538 23.5759 191.538 14.2561C191.538 6.38657 184.927 0.867713 172.482 0.867713H152.939V1.93798C154.994 1.93798 158.069 1.81544 158.069 5.11376L158.052 46.0538C158.052 49.3496 154.978 49.2296 152.939 49.2296V50.2998H169.475V49.2296C167.42 49.2296 164.345 49.3496 164.345 46.0538L164.359 3.09826H168.416C173.4 3.09826 185.417 2.86821 185.417 14.7287C185.417 27.0542 173.403 27.7369 168.416 27.7369H165.692V27.7394ZM343.482 5.11626C343.482 1.82045 346.557 1.94047 348.595 1.94047V0.870213H332.063V1.94047C334.115 1.94047 337.189 1.82045 337.189 5.11626L337.176 46.0563C337.176 49.3546 334.102 49.2321 332.063 49.2321V50.2998H348.595V49.2321C346.543 49.2321 343.469 49.3546 343.469 46.0563L343.482 5.11626ZM370.914 45.2461L350.444 23.1257C350.444 23.1257 365.367 7.64937 366.958 6.02648C369.252 3.6634 371.568 1.93798 376.296 1.93798V0.867713H359.151V1.93798C359.641 1.93798 362.324 1.89296 363.217 2.19053C364.916 2.75567 365.151 4.38107 363.048 6.56661L344.726 25.5238V25.5888L367.371 50.2998H378.377V49.2321C375.901 49.2321 372.787 47.2716 370.914 45.2461ZM94.1926 0.870213V1.94047C95.8178 1.94047 97.0243 1.96798 97.9042 2.18054C100.098 2.69816 100.314 4.4936 100.143 5.7189C99.9799 6.87669 99.4925 8.07949 99.1685 9.01971L86.5614 43.9308H86.4192L74.8104 11.1402C73.9305 8.64963 73.4274 6.99922 73.2773 5.80142C73.0587 4.0835 73.733 2.98323 74.5496 2.50812C75.3741 2.03049 76.1538 1.94298 78.0162 1.94047V0.870213H59.9616V1.94047C64.1973 1.94047 65.6488 3.6659 67.2477 8.1645L71.6098 20.5475L63.3149 43.9283H63.1726L51.3847 11.1402C50.4918 8.64963 49.9729 6.99922 49.8148 5.80142C49.5856 4.0835 50.2546 2.98323 51.0686 2.50812C51.8642 2.0455 52.6412 1.94047 54.551 1.94047V0.870213H36.3858V1.94047C40.6216 1.94047 42.0835 3.6659 43.7088 8.1645L58.8105 50.2998H63.6521L72.8953 24.1985L82.086 50.2998H86.9301L102.617 7.03923C104.289 2.41309 106.6 1.94047 109.855 1.94047V0.870213H94.1926ZM221.592 0C238.609 0 245.359 13.7183 245.359 24.8887C245.359 38.0643 235.621 51 220.464 51C205.038 51 196.456 39.5172 196.456 25.6564C196.456 10.6576 208.105 0 221.592 0ZM205.518 36.2889C208.296 41.1251 212.249 44.7185 216.715 46.5014C220.466 47.9967 225.132 48.1668 229.23 46.6089C239.13 42.848 239.432 30.7801 239.499 29.4673C240.015 19.7249 235.574 9.58485 227.4 5.36881C223.059 3.13327 216.368 2.19804 210.402 5.43883C206.14 7.7544 202.193 12.3305 201.674 21.0727C201.338 26.7991 203.081 32.0429 205.518 36.2889Z" fill="white"/>
</svg>
