<svg width="783" height="99" viewBox="0 0 783 99" fill="none" xmlns="http://www.w3.org/2000/svg">
<path d="M597.676 38.3913C606.72 41.7068 618.848 43.0852 628.101 45.7503C638.709 48.8083 647.408 54.7692 647.373 68.7006C647.337 85.2969 634.6 99.0729 609.398 98.9805C599.768 99.0535 586.793 95.3594 578.548 90.6655L576.472 67.4531L578.946 67.4628C582.141 83.6464 593.942 93.9275 611.064 93.9905C624.281 94.044 634.837 88.2579 637.262 77.2051C640.57 62.1085 628.479 58.4001 625.398 57.3663C617.573 54.7352 605.616 53.2741 595.019 49.9781C583.605 46.425 575.903 39.6194 575.933 27.5084C575.974 10.3587 592.693 -0.135915 614.165 0.00485308C627.336 0.0970824 638.053 4.17941 639.665 5.01432L641.341 25.3727L639.165 25.3678C636.615 12.2033 625.709 4.67453 611.74 4.62113C596.475 4.56774 587.393 13.0964 586.174 21.2368C584.735 30.9112 590.675 35.8235 597.676 38.3913ZM21.737 38.3913C14.7378 35.8283 8.79824 30.9161 10.2457 21.2417C11.4656 13.1062 20.5481 4.5726 35.8129 4.626C49.7804 4.67939 60.6879 12.2033 63.2363 25.3727L65.4073 25.3775L63.7324 5.01918C62.1197 4.18425 51.4036 0.101936 38.2323 0.00970624C16.759 -0.131062 0.0414477 10.3587 9.33296e-05 27.5133C-0.0309226 39.6243 7.67133 46.4299 19.0852 49.9829C29.6823 53.279 41.6441 54.7401 49.4652 57.3711C52.5462 58.4001 64.637 62.1134 61.3288 77.2099C58.9043 88.2628 48.3486 94.0489 35.1307 93.9954C18.0099 93.9324 6.20842 83.6513 3.01381 67.4677L0.537702 67.4579L2.61576 90.6704C10.8556 95.3643 23.8306 99.0584 33.4662 98.9854C58.6615 99.0778 71.4037 85.3018 71.44 68.7055C71.4762 54.7741 62.7711 48.8132 52.1687 45.7552C42.9158 43.0803 30.7834 41.7068 21.737 38.3913ZM772.966 9.93156C772.966 3.53382 778.998 3.7668 783 3.7668V1.68924H750.558V3.7668C754.585 3.7668 760.617 3.53382 760.617 9.93156L760.591 89.4034C760.591 95.8061 754.554 95.5683 750.558 95.5683V97.6408H783V95.5683C778.973 95.5683 772.941 95.8061 772.941 89.4034L772.966 9.93156ZM489.265 15.8487L520.917 97.6457H530.298L561.314 13.6692C564.642 4.65026 569.083 3.7668 575.472 3.7668V1.69409H544.721V3.7668C547.911 3.7668 550.273 3.82506 552.005 4.23281C556.305 5.2376 556.547 8.72287 556.208 11.1014C555.882 13.3489 554.874 15.6789 554.231 17.5088L529.487 85.2726H529.193L504.566 21.6252C502.714 16.7856 501.64 13.5819 501.278 11.2567C500.755 7.92196 502.023 5.79097 503.604 4.8687C505.145 3.97067 506.649 3.76196 510.396 3.76196V1.68924H474.625V3.76196C482.938 3.76196 485.883 7.11615 489.265 15.8487ZM234.749 11.0334C236.268 7.05306 234.697 5.05315 232.35 4.24737C230.939 3.7668 229.186 3.76196 227.511 3.76196V1.68924H247.289L280.141 83.4862C283.691 91.8158 286.167 95.5731 294.951 95.5731V97.6457H259.178V95.5731C262.932 95.5731 264.43 95.3691 265.955 94.4663C267.528 93.5441 268.763 91.4129 268.194 88.0782C267.801 85.753 266.679 82.5494 264.756 77.7098L259.665 65.0066H219.701L213.343 81.8309C212.676 83.661 211.637 85.9911 211.285 88.2385C210.908 90.6218 211.104 94.1021 215.395 95.1119C217.126 95.5148 219.458 95.578 222.647 95.578V97.6506H191.91V95.578C198.3 95.578 202.782 94.6314 206.209 85.6803L234.749 11.0334ZM257.829 60.4243L239.251 14.0624H238.951L221.427 60.4243H257.829ZM325.154 53.847V54.0994L366.286 97.6408H388.1V95.5634C383.8 95.5634 377.329 93.3741 370.846 86.5348L342.462 56.5699C360.586 54.6771 375.876 45.7649 375.876 27.6735C375.876 12.3975 362.901 1.68438 338.48 1.68438H300.129V3.76196C304.161 3.76196 310.196 3.52409 310.196 9.9267L310.162 89.3985C310.162 95.7963 304.13 95.5634 300.129 95.5634V97.6408H332.579V95.5634C328.546 95.5634 322.512 95.7963 322.512 89.3985L322.54 6.01427H330.5C340.281 6.01427 363.863 5.56769 363.863 28.5909C363.863 52.517 340.286 53.8421 330.5 53.8421H325.154V53.847ZM674.051 9.93156C674.051 3.53382 680.085 3.7668 684.084 3.7668V1.68924H651.642V3.7668C655.669 3.7668 661.701 3.53382 661.701 9.93156L661.676 89.4034C661.676 95.8061 655.644 95.5683 651.642 95.5683V97.6408H684.084V95.5683C680.057 95.5683 674.025 95.8061 674.025 89.4034L674.051 9.93156ZM727.884 87.8307L687.714 44.891C687.714 44.891 716.998 14.8488 720.12 11.6985C724.622 7.11131 729.167 3.76196 738.446 3.76196V1.68438H704.799V3.76196C705.761 3.76196 711.028 3.67457 712.78 4.25221C716.113 5.34925 716.575 8.50443 712.448 12.747L676.492 49.5463V49.6725L720.931 97.6408H742.529V95.5683C737.67 95.5683 731.559 91.7626 727.884 87.8307ZM184.844 1.68924V3.7668C188.033 3.7668 190.401 3.82019 192.128 4.23281C196.434 5.2376 196.858 8.72287 196.522 11.1014C196.201 13.3489 195.245 15.6837 194.609 17.5088L169.869 85.2775H169.59L146.808 21.6252C145.082 16.7905 144.094 13.5867 143.8 11.2616C143.371 7.9268 144.694 5.79097 146.297 4.8687C147.915 3.94155 149.445 3.77166 153.099 3.7668V1.68924H117.669V3.7668C125.981 3.7668 128.83 7.11615 131.967 15.8487L140.528 39.8864L124.25 85.2726H123.97L100.838 21.6252C99.0855 16.7905 98.0671 13.5867 97.7569 11.2616C97.307 7.9268 98.62 5.79097 100.217 4.8687C101.779 3.97067 103.303 3.7668 107.051 3.7668V1.68924H71.4037V3.7668C79.716 3.7668 82.5848 7.11615 85.7745 15.8487L115.41 97.6408H124.911L143.05 46.9736L161.086 97.6408H170.592L201.376 13.6644C204.658 4.68423 209.192 3.7668 215.581 3.7668V1.68924H184.844ZM434.853 0C468.247 0 481.494 26.6297 481.494 48.3133C481.494 73.8896 462.383 99 432.639 99C402.368 99 385.527 76.7098 385.527 49.8035C385.527 20.6883 408.387 0 434.853 0ZM403.309 70.4433C408.762 79.831 416.518 86.8066 425.284 90.2675C432.644 93.1701 441.801 93.5003 449.842 90.4761C469.269 83.1755 469.864 59.7495 469.994 57.2012C471.006 38.2894 462.291 18.6059 446.251 10.4218C437.733 6.08223 424.603 4.26678 412.893 10.5577C404.53 15.0527 396.785 23.9357 395.767 40.9059C395.106 52.0217 398.527 62.2009 403.309 70.4433Z" fill="white"/>
</svg>
