<svg width="206" height="26" viewBox="0 0 206 26" fill="none" xmlns="http://www.w3.org/2000/svg">
<path d="M157.243 10.0826C159.622 10.9533 162.813 11.3153 165.248 12.0152C168.038 12.8183 170.327 14.3838 170.318 18.0426C170.308 22.4012 166.957 26.0192 160.327 25.9949C157.793 26.014 154.38 25.0439 152.211 23.8111L151.664 17.7149L152.315 17.7175C153.156 21.9678 156.261 24.6678 160.765 24.6844C164.242 24.6984 167.02 23.1788 167.658 20.2761C168.528 16.3113 165.347 15.3374 164.536 15.0659C162.478 14.3749 159.332 13.9912 156.544 13.1256C153.541 12.1924 151.515 10.4051 151.523 7.22444C151.533 2.72047 155.932 -0.0356948 161.581 0.00127455C165.046 0.0254964 167.866 1.09762 168.29 1.31689L168.731 6.66353L168.158 6.66225C167.487 3.2049 164.618 1.22765 160.943 1.21363C156.927 1.19961 154.538 3.43947 154.217 5.57735C153.838 8.1181 155.401 9.40818 157.243 10.0826ZM5.71881 10.0826C3.87738 9.40946 2.31474 8.11938 2.69554 5.57863C3.0165 3.44202 5.40601 1.20089 9.42205 1.21491C13.0968 1.22893 15.9664 3.2049 16.6369 6.66353L17.208 6.6648L16.7674 1.31817C16.3431 1.09889 13.5238 0.026771 10.0586 0.00254911C4.40913 -0.0344203 0.0109045 2.72047 2.45542e-05 7.22571C-0.00813546 10.4064 2.01826 12.1937 5.02113 13.1268C7.80914 13.9925 10.9562 14.3762 13.0138 15.0672C13.8244 15.3374 17.0054 16.3126 16.135 20.2774C15.4972 23.1801 12.7201 24.6997 9.24256 24.6857C4.73825 24.6691 1.63338 21.969 0.792905 17.7188L0.141464 17.7162L0.688181 23.8124C2.85602 25.0452 6.26961 26.0153 8.80466 25.9962C15.4333 26.0204 18.7857 22.4025 18.7952 18.0439C18.8047 14.3851 16.5145 12.8196 13.7251 12.0165C11.2907 11.314 8.09882 10.9533 5.71881 10.0826ZM203.36 2.60829C203.36 0.928073 204.947 0.98926 206 0.98926V0.443638H197.465V0.98926C198.524 0.98926 200.111 0.928073 200.111 2.60829L200.105 23.4797C200.105 25.1612 198.516 25.0987 197.465 25.0987V25.643H206V25.0987C204.94 25.0987 203.354 25.1612 203.354 23.4797L203.36 2.60829ZM128.721 4.16229L137.048 25.6443H139.516L147.676 3.5899C148.552 1.22128 149.72 0.98926 151.401 0.98926V0.444913H143.311V0.98926C144.15 0.98926 144.772 1.00456 145.227 1.11165C146.359 1.37553 146.422 2.29086 146.333 2.91552C146.247 3.50577 145.982 4.11768 145.813 4.59828L139.303 22.3948H139.226L132.747 5.67934C132.259 4.40834 131.977 3.56695 131.882 2.95632C131.744 2.08051 132.078 1.52086 132.494 1.27865C132.899 1.0428 133.295 0.98799 134.28 0.98799V0.443638H124.87V0.98799C127.056 0.98799 127.831 1.86889 128.721 4.16229ZM61.7601 2.89767C62.16 1.85232 61.7466 1.32709 61.1291 1.11547C60.7579 0.98926 60.2968 0.98799 59.8562 0.98799V0.443638H65.0595L73.7024 21.9257C74.6364 24.1132 75.288 25.1 77.5989 25.1V25.6443H68.1873V25.1C69.1751 25.1 69.569 25.0464 69.9702 24.8093C70.3842 24.5671 70.709 24.0074 70.5594 23.1317C70.456 22.521 70.1608 21.6796 69.6548 20.4086L68.3155 17.0724H57.8013L56.1284 21.4909C55.953 21.9716 55.6797 22.5835 55.5871 23.1737C55.4879 23.7997 55.5395 24.7137 56.6683 24.9789C57.1239 25.0847 57.7373 25.1013 58.5764 25.1013V25.6456H50.4899V25.1013C52.1708 25.1013 53.35 24.8527 54.2516 22.5019L61.7601 2.89767ZM67.8324 15.869L62.9447 3.69316H62.8658L58.2555 15.869H67.8324ZM85.545 14.1416V14.2079L96.3664 25.643H102.106V25.0975C100.974 25.0975 99.2719 24.5225 97.5662 22.7263L90.0985 14.8568C94.8667 14.3596 98.8894 12.0191 98.8894 7.2678C98.8894 3.2559 95.476 0.442363 89.0511 0.442363H78.9611V0.98799C80.0219 0.98799 81.6096 0.925519 81.6096 2.60701L81.6008 23.4784C81.6008 25.1586 80.0139 25.0975 78.9611 25.0975V25.643H87.4983V25.0975C86.4375 25.0975 84.8499 25.1586 84.8499 23.4784L84.8572 1.57951H86.9515C89.5248 1.57951 95.7289 1.46222 95.7289 7.50872C95.7289 13.7923 89.5261 14.1404 86.9515 14.1404H85.545V14.1416ZM177.336 2.60829C177.336 0.928073 178.924 0.98926 179.976 0.98926V0.443638H171.441V0.98926C172.501 0.98926 174.087 0.928073 174.087 2.60829L174.081 23.4797C174.081 25.1612 172.494 25.0987 171.441 25.0987V25.643H179.976V25.0987C178.917 25.0987 177.33 25.1612 177.33 23.4797L177.336 2.60829ZM191.499 23.0667L180.931 11.7896C180.931 11.7896 188.636 3.89968 189.457 3.07232C190.641 1.86762 191.837 0.98799 194.278 0.98799V0.442363H185.426V0.98799C185.679 0.98799 187.065 0.96504 187.526 1.11674C188.403 1.40485 188.524 2.23349 187.439 3.34768L177.979 13.0121V13.0453L189.67 25.643H195.352V25.0987C194.074 25.0987 192.466 24.0993 191.499 23.0667ZM48.6308 0.443638V0.98926C49.4699 0.98926 50.0928 1.00328 50.547 1.11165C51.6799 1.37553 51.7914 2.29086 51.703 2.91552C51.6187 3.50577 51.3671 4.11896 51.1998 4.59828L44.6909 22.3961H44.6175L38.6239 5.67934C38.1697 4.40962 37.9099 3.56823 37.8324 2.95759C37.7195 2.08178 38.0677 1.52086 38.4893 1.27865C38.9149 1.03515 39.3175 0.990537 40.279 0.98926V0.443638H30.9576V0.98926C33.1445 0.98926 33.8938 1.86889 34.7194 4.16229L36.9715 10.4752L32.6889 22.3948H32.6154L26.5294 5.67934C26.0685 4.40962 25.8005 3.56823 25.7189 2.95759C25.6006 2.08178 25.946 1.52086 26.3663 1.27865C26.777 1.0428 27.1782 0.98926 28.1642 0.98926V0.443638H18.7857V0.98926C20.9725 0.98926 21.7273 1.86889 22.5665 4.16229L30.3633 25.643H32.863L37.6352 12.3365L42.3802 25.643H44.8812L52.98 3.58863C53.8436 1.2302 55.0364 0.98926 56.7173 0.98926V0.443638H48.6308ZM114.406 0C123.191 0 126.677 6.99366 126.677 12.6883C126.677 19.4053 121.649 26 113.823 26C105.859 26 101.428 20.146 101.428 13.0797C101.428 5.4333 107.443 0 114.406 0ZM106.107 18.5002C107.541 20.9657 109.582 22.7977 111.888 23.7066C113.825 24.4689 116.234 24.5556 118.349 23.7614C123.46 21.8441 123.617 15.6918 123.651 15.0225C123.917 10.0558 121.625 4.8864 117.405 2.73704C115.163 1.59735 111.709 1.12057 108.628 2.77274C106.428 3.95322 104.39 6.28615 104.123 10.743C103.949 13.6623 104.849 16.3356 106.107 18.5002Z" fill="black"/>
</svg>
