<svg width="102" height="102" viewBox="0 0 102 102" fill="none" xmlns="http://www.w3.org/2000/svg">
<path d="M50.3105 26.3779C51.3811 26.2809 52.4172 26.6479 53.1836 27.3906L53.333 27.5439H53.334C55.2099 29.578 55.65 32.4972 54.46 34.9912L54.457 34.998L54.4541 35.0039L52.6885 39.3184L52.5469 39.6631H69.4814C71.5025 39.6631 73.1484 41.3073 73.1484 43.3271V45.0068C73.1484 46.1961 72.5777 47.2561 71.6953 47.9287L71.5107 48.0693L71.6377 48.2646C72.0134 48.8396 72.2314 49.5244 72.2314 50.2627V51.9395C72.2314 53.2509 71.5392 54.4025 70.502 55.0508L70.2988 55.1777L70.416 55.3857C70.7188 55.9207 70.8935 56.5373 70.8936 57.1924V58.873C70.8934 60.2846 70.091 61.5143 68.916 62.126L68.6953 62.2412L68.8096 62.4619C69.066 62.9602 69.209 63.5279 69.209 64.126V65.8057C69.209 67.8267 67.5646 69.4717 65.5439 69.4717H54.5947C51.8754 69.4716 49.1917 69.0556 46.6055 68.2314L46.0898 68.0615L40.373 66.1133L40.1084 66.0234L40.0479 66.2959C39.8146 67.3547 38.8689 68.1502 37.7412 68.1504H32.1973C30.8978 68.1504 29.8369 67.0898 29.8369 65.7871V42.6396C29.8369 42.0837 30.0262 41.5602 30.374 41.1387L30.5322 40.9648C30.9781 40.5206 31.5698 40.2764 32.1973 40.2764H32.21L37.7559 40.3174C38.3815 40.3216 38.9507 40.569 39.3701 40.9727L39.5957 41.1895L39.7568 40.9219L47.5273 28.0811L47.5322 28.0713L47.5371 28.0654L47.54 28.0605C48.1174 27.1517 49.039 26.5564 50.0967 26.4023L50.3105 26.3779ZM50.4932 28.4463C50.0651 28.4845 49.6782 28.6889 49.4082 29.0156L49.2998 29.1631L49.2949 29.1709L40.7598 43.2793L40.752 43.293L40.749 43.2979V43.2988C40.5943 43.5407 40.4067 43.7532 40.1924 43.9346L40.1035 44.0098V47.4355C40.1035 48.0092 39.6367 48.4756 39.0645 48.4756C38.4908 48.4756 38.0264 48.0097 38.0264 47.4355V42.6787C38.0264 42.5056 37.8805 42.3962 37.7422 42.3955H37.7432L32.1973 42.3545H32.1953C32.1591 42.3545 32.1055 42.3625 32.0518 42.3955L31.998 42.4385C31.9674 42.4692 31.9412 42.5083 31.9268 42.5557C31.9136 42.5988 31.915 42.6363 31.915 42.6396V65.7871C31.915 65.9258 32.0246 66.0723 32.1982 66.0723H37.7412C37.8976 66.0721 38.0264 65.9435 38.0264 65.7871V52.667C38.0264 52.0928 38.4908 51.627 39.0645 51.627C39.6367 51.627 40.1035 52.0933 40.1035 52.667V63.8232L40.2734 63.8818L46.7598 66.0928C49.2882 66.9555 51.924 67.3916 54.5947 67.3916H65.5449C66.419 67.3916 67.1308 66.6804 67.1309 65.8057V64.126C67.1309 63.2512 66.419 62.5391 65.5449 62.5391H59.6133C59.0395 62.5391 58.5735 62.0729 58.5732 61.501C58.5732 60.9271 59.0394 60.4609 59.6133 60.4609H67.2275C68.1042 60.4607 68.8152 59.7474 68.8154 58.873V57.1924C68.8153 56.3175 68.1038 55.6067 67.2275 55.6064H59.6133C59.0394 55.6064 58.5732 55.1395 58.5732 54.5674C58.5734 53.9936 59.0395 53.5283 59.6133 53.5283H68.5654C69.4393 53.5283 70.1533 52.8145 70.1533 51.9395V50.2598C70.1533 49.3851 69.4387 48.6738 68.5654 48.6738H59.6133C59.0396 48.6738 58.5733 48.2071 58.5732 47.6348C58.5732 47.0608 59.0394 46.5957 59.6133 46.5957H69.4814C70.3564 46.5957 71.0703 45.8818 71.0703 45.0068V43.3271C71.0703 42.452 70.358 41.7402 69.4814 41.7402H51C50.6975 41.7402 50.4119 41.6077 50.2158 41.3818L50.1377 41.2803V41.2793C49.9689 41.0286 49.9186 40.7175 49.9971 40.4297L50.0381 40.3086L50.0391 40.3076L52.541 34.1924C52.5484 34.1764 52.5597 34.1492 52.5713 34.1221L52.5723 34.123C53.3567 32.5021 53.1409 30.6166 52.0391 29.2246L51.8066 28.9531C51.5114 28.6321 51.1071 28.4501 50.6777 28.4404L50.4932 28.4463Z" fill="black" stroke="white" stroke-width="0.5"/>
<path d="M51 7.25C53.7112 7.25 56.1582 8.52016 57.7158 10.7402L58.1709 11.3887V11.3096C59.889 13.2297 62.6457 13.8806 65.0586 12.8877L65.3125 12.7764C67.6178 11.7033 70.1831 11.7443 72.4297 12.8701L72.874 13.1094C75.0756 14.3821 76.5181 16.5036 76.8857 18.9902L76.9443 19.4922C77.1983 22.3582 79.4034 24.644 82.2305 25.0225L82.5059 25.0537C85.0382 25.2792 87.2391 26.5959 88.6221 28.6943L88.8877 29.125C90.1578 31.3266 90.3454 33.8845 89.4229 36.2227L89.2236 36.6865C88.008 39.2966 88.7733 42.3778 91.0352 44.1191L91.2588 44.2832C93.4783 45.8428 94.75 48.2879 94.75 50.999C94.7499 53.5413 93.6321 55.85 91.6641 57.4121L91.2588 57.7148C88.9027 59.3678 88.024 62.4189 89.1123 65.0576L89.2236 65.3115C90.2941 67.6177 90.2535 70.1823 89.1279 72.4287L88.8877 72.873C87.6159 75.0763 85.494 76.5176 83.0078 76.8857L82.5059 76.9453C79.6402 77.1994 77.3542 79.403 76.9756 82.2324L76.9443 82.5088C76.7065 85.2081 75.2221 87.534 72.874 88.8887C70.6724 90.1588 68.1138 90.3462 65.7764 89.4229L65.3125 89.2236C62.7025 88.0107 59.6237 88.7761 57.8809 91.0361L57.7158 91.2598C56.1582 93.4781 53.7111 94.75 51 94.75C48.4581 94.75 46.1482 93.632 44.5859 91.6641L44.2842 91.2598C42.6295 88.9036 39.5799 88.0264 36.9414 89.1123L36.6875 89.2236C34.3823 90.2949 31.8175 90.2555 29.5713 89.1289L29.126 88.8887C26.9245 87.6185 25.4818 85.4947 25.1143 83.0098L25.0557 82.5088C24.8017 79.64 22.5965 77.3556 19.7695 76.9756L19.4941 76.9453L18.9922 76.8857C16.6718 76.5421 14.6687 75.2639 13.3779 73.3037L13.1123 72.873C11.8423 70.6715 11.6547 68.1139 12.5771 65.7773L12.7764 65.3135C13.9892 62.7018 13.2238 59.6228 10.9648 57.8799L10.7412 57.7148C8.52201 56.1572 7.25013 53.711 7.25 50.999C7.25 48.4575 8.36758 46.1495 10.3359 44.5859L10.7412 44.2832C13.0972 42.6303 13.976 39.5784 12.8877 36.9404L12.7764 36.6865C11.7058 34.3802 11.7472 31.8159 12.873 29.5693L13.1123 29.125C14.384 26.9235 16.506 25.483 18.9922 25.1133L19.4941 25.0537C22.3598 24.7997 24.6458 22.5953 25.0244 19.7676L25.0557 19.4912C25.2787 16.9588 26.5973 14.758 28.6963 13.375L29.126 13.1094C31.3272 11.8394 33.8856 11.6518 36.2227 12.5762L36.6875 12.7764C39.2977 13.9894 42.3789 13.2224 44.1201 10.9619L44.2842 10.7383C45.8418 8.52008 48.2889 7.25 51 7.25ZM51 9.32812C49.1037 9.32813 47.377 10.1634 46.2109 11.6309L45.9844 11.9336C43.7703 15.0878 39.6856 16.2633 36.1504 14.8086L35.8096 14.6592C34.0912 13.8612 32.1727 13.8912 30.4971 14.7324L30.165 14.9111C28.5224 15.8586 27.4429 17.446 27.1689 19.3008L27.125 19.6748C26.782 23.5147 23.8331 26.5753 20.0459 27.082L19.6777 27.123H19.6768C17.7878 27.2914 16.1426 28.2759 15.1094 29.8418L14.9111 30.1631C13.9636 31.8044 13.8242 33.7184 14.5127 35.4639L14.6611 35.8105C16.2873 39.3063 15.2614 43.4313 12.2344 45.7637L11.9346 45.9834C10.2805 47.1473 9.32812 48.9758 9.32812 50.999C9.32824 52.8962 10.1652 54.6228 11.6328 55.7881L11.9346 56.0137C15.0898 58.2287 16.266 62.3133 14.8105 65.8486L14.6611 66.1895C13.8621 67.909 13.8927 69.8278 14.7324 71.5049L14.9111 71.8369C15.9243 73.5868 17.6615 74.6962 19.6768 74.873V74.874C23.5162 75.2169 26.5747 78.1659 27.084 81.9541L27.125 82.3232C27.2932 84.2118 28.2783 85.858 29.8447 86.8906L30.165 87.0889C31.8062 88.0363 33.7204 88.1767 35.4639 87.4873L35.8096 87.3389C36.9264 86.8203 38.1052 86.5713 39.2715 86.5713C41.8738 86.5713 44.403 87.8142 45.9844 90.0635V90.0645C47.1466 91.721 48.977 92.6719 51 92.6719C52.8966 92.6719 54.6239 91.8366 55.79 90.3672L56.0156 90.0645C58.2297 86.9104 62.3144 85.7348 65.8496 87.1895L66.1904 87.3389C67.909 88.1387 69.8276 88.1073 71.5029 87.2676L71.835 87.0889C73.4775 86.1397 74.5571 84.5522 74.8311 82.6973L74.875 82.3232C75.2263 78.36 78.3598 75.228 82.3232 74.874L82.3223 74.873C84.2117 74.7057 85.8574 73.722 86.8906 72.1572L87.0889 71.8369C88.0362 70.1941 88.1757 68.2801 87.4873 66.5361L87.3389 66.1895C85.7128 62.6921 86.7387 58.5692 89.7656 56.2344L90.0654 56.0137C91.7196 54.8525 92.6717 53.0227 92.6719 50.999C92.6719 49.1021 91.8349 47.3763 90.3672 46.209L90.0654 45.9834C86.91 43.7692 85.7336 39.6842 87.1895 36.1504L87.3389 35.8105C88.1377 34.0895 88.1073 32.1707 87.2676 30.4951L87.0889 30.1631C86.1388 28.5204 84.5524 27.444 82.6973 27.168L82.3232 27.123C78.4838 26.7827 75.4229 23.8314 74.916 20.0439L74.875 19.6748C74.7068 17.7862 73.7219 16.1396 72.1553 15.1084L71.835 14.9111C70.1937 13.9618 68.2796 13.8213 66.5361 14.5107L66.1904 14.6592C62.693 16.2846 58.5677 15.2586 56.2354 12.2324L56.0156 11.9336C54.8534 10.279 53.0229 9.32812 51 9.32812Z" fill="black" stroke="white" stroke-width="0.5"/>
<path d="M83.7656 52.5742C84.3009 52.6174 84.7104 53.0598 84.7227 53.5869L84.7197 53.6934C84.0749 61.887 80.4858 69.5088 74.5889 75.2441L74.0117 75.7939C67.737 81.6191 59.566 84.8261 51 84.8262C42.7016 84.8262 34.7741 81.816 28.582 76.332L27.9883 75.7939C21.943 70.1817 18.1856 62.6398 17.3516 54.4844L17.2803 53.6934V53.6924L17.2764 53.5859C17.2864 53.0953 17.6445 52.6776 18.1279 52.5889L18.2334 52.5742C18.7689 52.5312 19.2416 52.9047 19.3369 53.4238L19.3516 53.5303C19.957 61.2189 23.3268 68.3715 28.8594 73.7549L29.4014 74.2705C35.2898 79.7386 42.9607 82.75 51 82.75C58.7879 82.7499 66.2298 79.9242 72.0391 74.7764L72.5957 74.2705C78.2691 69.0024 81.7979 61.9254 82.5811 54.2725L82.6484 53.5293C82.6902 52.9928 83.1328 52.5827 83.6592 52.5713L83.7656 52.5742Z" fill="black" stroke="white" stroke-width="0.5"/>
<path d="M51 17.1729C59.2922 17.1729 67.2161 20.1783 73.4062 25.6553L74 26.1934C80.0427 31.7995 83.8037 39.3333 84.6455 47.4824L84.7178 48.2725V48.2734C84.7607 48.808 84.3888 49.2819 83.8701 49.377L83.7646 49.3906C83.2277 49.4321 82.756 49.0611 82.6611 48.543L82.6465 48.4375C82.0331 40.755 78.6618 33.608 73.1289 28.2324L72.5859 27.7178C66.6994 22.2582 59.0327 19.251 51 19.251C43.2122 19.251 35.772 22.0746 29.9629 27.2197L29.4062 27.7256C23.7326 32.9929 20.2036 40.0692 19.4189 47.7207L19.3516 48.4629C19.3084 49.0065 18.854 49.4188 18.3184 49.4189H18.2637C18.2532 49.4183 18.2415 49.4177 18.2275 49.417H18.2266C17.6596 49.3672 17.2363 48.8698 17.2803 48.2998C17.9268 40.1077 21.5182 32.4857 27.4131 26.752L27.9902 26.2031C34.265 20.3789 42.4358 17.1729 51 17.1729Z" fill="black" stroke="white" stroke-width="0.5"/>
</svg>
