<svg width="102" height="102" viewBox="0 0 102 102" fill="none" xmlns="http://www.w3.org/2000/svg">
<rect x="90.6533" y="23.75" width="61.4443" height="80.9" rx="2.25" transform="rotate(90 90.6533 23.75)" stroke="black" stroke-width="1.5"/>
<line x1="29.8516" y1="35.4482" x2="69.5528" y2="35.4482" stroke="black" stroke-width="1.5" stroke-linecap="round"/>
<line x1="35.8818" y1="41.5391" x2="61.5144" y2="41.5391" stroke="black" stroke-width="1.5" stroke-linecap="round"/>
<line x1="31.8613" y1="53.7227" x2="65.5327" y2="53.7227" stroke="black" stroke-width="1.5" stroke-linecap="round"/>
<line x1="31.8613" y1="58.7979" x2="65.5327" y2="58.7979" stroke="black" stroke-width="1.5" stroke-linecap="round"/>
<line x1="31.8613" y1="63.875" x2="65.5327" y2="63.875" stroke="black" stroke-width="1.5" stroke-linecap="round"/>
<line x1="17.793" y1="75.042" x2="31.3664" y2="75.042" stroke="black" stroke-width="1.5" stroke-linecap="round"/>
<path d="M81.1484 65.375C87.8163 65.375 93.2548 70.9253 93.2549 77.8125C93.2549 84.6998 87.8164 90.25 81.1484 90.25C74.4806 90.2498 69.043 84.6997 69.043 77.8125C69.043 70.9254 74.4807 65.3752 81.1484 65.375Z" fill="white" stroke="black" stroke-width="1.5"/>
<path d="M73.8018 77.812L79.4078 82.3305C79.8543 82.6904 80.5114 82.6018 80.8467 82.1365L88.0349 72.1602" stroke="black" stroke-width="1.5" stroke-linecap="round"/>
</svg>
